<?xml version="1.0" standalone="no"?>
<!DOCTYPE svg PUBLIC "-//W3C//DTD SVG 20010904//EN"
 "http://www.w3.org/TR/2001/REC-SVG-20010904/DTD/svg10.dtd">
<svg version="1.0" xmlns="http://www.w3.org/2000/svg"
 width="1024.000000pt" height="1024.000000pt" viewBox="0 0 1024.000000 1024.000000"
 preserveAspectRatio="xMidYMid meet">

<g transform="translate(0.000000,1024.000000) scale(0.100000,-0.100000)"
fill="#ff0000" stroke="none">
<path d="M30 5120 l0 -5120 50 0 50 0 0 5120 0 5120 -50 0 -50 0 0 -5120z"/>
<path d="M4810 10060 c-30 -5 -107 -13 -170 -19 -124 -11 -215 -24 -325 -46
-175 -35 -274 -57 -325 -71 -30 -9 -77 -22 -105 -30 -118 -32 -263 -79 -312
-100 -17 -8 -35 -14 -41 -14 -8 0 -59 -20 -127 -50 -11 -5 -65 -28 -120 -51
-152 -63 -467 -228 -600 -314 -371 -239 -585 -410 -858 -685 -258 -261 -401
-433 -584 -701 -159 -234 -346 -573 -443 -805 -23 -54 -47 -112 -54 -129 -8
-16 -28 -70 -46 -120 -17 -49 -38 -106 -45 -125 -41 -115 -82 -252 -109 -370
-8 -30 -18 -73 -24 -95 -10 -37 -24 -103 -53 -250 -52 -259 -73 -522 -73 -900
0 -378 21 -641 73 -900 29 -147 43 -213 53 -250 6 -22 16 -65 24 -95 27 -118
68 -255 109 -370 7 -19 28 -75 45 -125 18 -49 38 -103 46 -120 7 -16 31 -73
53 -125 97 -232 274 -554 435 -794 284 -422 653 -816 1056 -1127 114 -89 275
-201 363 -255 27 -16 61 -37 75 -46 15 -10 34 -21 42 -25 8 -4 51 -28 95 -53
111 -64 307 -162 423 -210 53 -23 106 -45 117 -50 71 -31 117 -49 144 -55 17
-3 33 -11 36 -16 4 -5 15 -9 27 -9 11 0 34 -6 51 -14 43 -18 152 -52 327 -99
186 -51 474 -103 650 -118 63 -5 151 -14 195 -19 201 -25 679 -7 970 36 217
32 502 92 626 132 18 7 63 21 99 32 99 30 179 57 240 80 30 12 66 25 80 30 14
4 43 15 65 25 22 10 54 24 70 31 239 104 421 198 613 318 62 39 124 78 137 86
105 66 379 275 515 394 169 148 352 336 524 536 71 83 272 352 311 418 6 9 28
44 49 77 112 171 299 518 355 656 8 19 21 52 31 74 75 180 126 319 174 480 20
66 43 141 51 166 8 26 15 53 15 62 0 8 6 37 14 63 81 279 141 778 141 1179 0
401 -60 900 -141 1179 -8 26 -14 55 -14 63 0 9 -7 36 -15 62 -8 25 -31 100
-51 166 -50 166 -118 356 -169 470 -7 17 -21 48 -31 70 -33 78 -148 311 -197
400 -41 74 -94 161 -207 340 -56 87 -228 321 -314 424 -191 229 -493 523 -711
691 -38 30 -72 57 -75 60 -3 3 -40 30 -83 60 -43 30 -97 69 -120 86 -151 110
-480 294 -722 403 -38 18 -79 36 -90 41 -36 16 -100 42 -125 50 -14 5 -50 18
-80 30 -74 28 -222 78 -290 97 -164 46 -201 56 -260 69 -220 51 -426 84 -666
109 -161 16 -643 19 -744 5z m11 -4451 c10 -20 -3 -56 -25 -71 -24 -17 22 -28
115 -28 106 0 119 -6 119 -56 0 -33 17 -56 24 -32 15 58 24 73 41 76 23 5 45
-23 45 -56 0 -35 23 -22 31 18 4 18 13 36 21 41 22 14 337 7 350 -8 14 -17 33
-16 48 2 7 9 29 15 54 15 32 0 49 -7 74 -29 30 -28 32 -34 32 -95 0 -82 -12
-96 -85 -96 -43 0 -56 -4 -64 -19 -7 -13 -6 -23 3 -36 12 -17 14 -17 39 0 16
10 34 14 47 10 18 -6 20 -12 14 -38 -8 -40 -18 -52 -54 -67 -38 -16 -97 -5
-110 21 -6 10 -11 69 -11 129 0 119 -6 131 -47 88 -31 -34 -42 -72 -42 -147 0
-46 -5 -72 -14 -80 -19 -16 -46 -3 -46 23 0 12 -7 31 -15 42 -13 18 -14 17
-21 -15 -5 -22 -17 -39 -38 -52 -39 -24 -63 -24 -103 1 -30 18 -32 23 -35 87
-2 52 -6 68 -18 68 -11 0 -17 -17 -22 -60 -4 -33 -12 -70 -18 -83 -7 -17 -6
-29 6 -47 8 -13 14 -36 12 -52 -3 -24 -8 -28 -39 -31 -58 -5 -72 16 -67 107 3
87 -7 96 -44 41 -37 -54 -91 -64 -143 -26 -17 12 -21 29 -25 133 -4 96 -8 118
-20 118 -12 0 -16 -19 -21 -90 -3 -49 -13 -108 -23 -129 -9 -21 -19 -63 -22
-92 -12 -95 -58 -99 -67 -7 -7 65 -17 79 -45 64 -51 -27 -68 32 -36 120 9 24
20 84 24 132 7 98 16 110 67 101 26 -5 32 -2 38 15 12 39 -15 83 -29 46 -3 -9
-18 -15 -36 -15 -29 0 -31 2 -28 33 3 27 7 33 31 35 17 2 36 -3 47 -13 17 -15
21 -15 48 -1 17 9 33 20 37 25 8 14 34 2 46 -20z m509 -608 c16 -32 6 -198
-13 -218 -4 -3 -18 -1 -33 5 -22 11 -29 9 -62 -18 -110 -88 -236 -80 -325 19
-63 70 -35 135 33 77 63 -52 135 -42 213 29 30 28 37 41 37 73 0 21 3 42 7 45
3 4 35 7 69 7 52 0 65 -3 74 -19z m-470 -66 c0 -8 -7 -15 -15 -15 -8 0 -15 7
-15 15 0 8 7 15 15 15 8 0 15 -7 15 -15z"/>
<path d="M4677 5413 c-4 -3 -7 -25 -7 -49 0 -81 24 -101 34 -29 10 62 -4 101
-27 78z"/>
<path d="M5607 5403 c-3 -5 -2 -15 3 -22 10 -17 63 -6 57 12 -4 14 -53 22 -60
10z"/>
<path d="M5035 5300 c-4 -6 -3 -16 3 -22 6 -6 12 -6 17 2 4 6 3 16 -3 22 -6 6
-12 6 -17 -2z"/>
</g>
</svg>
